<svg width="24" height="29" viewBox="0 0 24 29" fill="none" xmlns="http://www.w3.org/2000/svg">
<mask id="mask0_4_1053" style="mask-type:luminance" maskUnits="userSpaceOnUse" x="0" y="0" width="24" height="29">
<path d="M23.4245 0H0V28.9505H23.4245V0Z" fill="white"/>
</mask>
<g mask="url(#mask0_4_1053)">
<mask id="mask1_4_1053" style="mask-type:luminance" maskUnits="userSpaceOnUse" x="0" y="0" width="24" height="29">
<path d="M23.4245 0H0V28.9505H23.4245V0Z" fill="white"/>
</mask>
<g mask="url(#mask1_4_1053)">
<path d="M21.5908 7.91154C21.5415 7.77433 21.4865 7.63901 21.4261 7.50591C21.3322 6.9742 20.8953 5.97353 20.8895 5.9622L20.799 5.7707C20.6012 5.3555 20.3763 4.88537 20.3356 4.4815C20.304 4.16973 20.7257 2.55598 20.9284 1.78019C21.3027 0.348903 21.3422 0.199846 20.8859 0.0420735C20.8181 0.0197215 20.7461 0.0111127 20.6747 0.0167951L20.6719 0.0162139C20.2368 -0.0735686 19.7726 0.215536 18.9895 0.734181C18.8525 0.824834 18.673 0.943672 18.5037 1.04827C18.5627 0.783868 18.5541 0.440428 18.2014 0.170499C17.7538 -0.172068 17.1194 0.177765 16.1595 0.708323C15.8906 0.857086 15.4892 1.07937 15.2212 1.19384C15.0092 0.860285 14.6184 0.498539 13.881 0.641495C13.4638 0.722269 12.9795 1.0721 12.2888 1.59743C12.0892 1.75125 11.886 1.90072 11.6793 2.04576C11.6763 1.92547 11.6617 1.79414 11.6109 1.66513C11.3682 1.05292 10.9716 0.858541 10.6815 0.803336C9.74349 0.623771 8.73351 1.64479 7.92437 2.46561C7.87361 2.51733 7.82074 2.57051 7.76879 2.62281C7.53453 2.25206 7.24071 1.86968 6.80893 1.79733C6.39265 1.72498 4.67624 2.11898 3.0859 3.45556C1.57122 4.72818 -0.190788 7.18486 0.0167397 11.6632C0.074167 12.8972 0.771192 23.8274 7.53633 27.675C9.03156 28.526 10.6951 28.9505 12.5164 28.9505C14.6968 28.9505 17.103 28.3412 19.7161 27.1238C26.734 23.8533 21.6464 8.06872 21.5908 7.91154ZM19.2788 26.2655C14.8047 28.3505 11.0254 28.5493 8.0459 26.8541C1.73104 23.2626 1.06835 12.8013 1.01366 11.6205C0.874499 8.61817 1.63503 6.25738 3.27459 4.60412C4.68079 3.1862 6.27722 2.78784 6.62997 2.74484C6.74939 2.83927 6.93959 3.15249 7.0344 3.30909C7.11766 3.44623 7.18967 3.56507 7.26439 3.66067C7.34141 3.75921 7.45526 3.82547 7.58219 3.84556C7.70911 3.86565 7.83921 3.83802 7.94531 3.76847C8.12884 3.64849 8.34762 3.42679 8.64994 3.11966C9.04313 2.72101 10.0859 1.66222 10.4864 1.73835C10.5441 1.74968 10.6177 1.85079 10.676 1.99723C10.6842 2.02891 10.6824 2.12479 10.6809 2.18784C10.6757 2.42552 10.666 2.86833 11.0783 3.10048C11.5584 3.371 12.0959 2.96189 12.909 2.34387C13.2669 2.0722 13.8652 1.61748 14.0791 1.57622C14.2614 1.54048 14.3158 1.52973 14.4823 1.91908C14.544 2.0629 14.6746 2.16895 14.8332 2.20353C15.2516 2.29535 15.774 2.0228 16.6587 1.53379C16.8757 1.41351 17.1829 1.24411 17.429 1.12585C17.3494 1.34813 17.2783 1.65612 17.4737 1.95278C17.57 2.09777 17.7204 2.19685 17.8984 2.23143C18.3263 2.3154 18.7842 2.02949 19.5562 1.5184C19.7196 1.40913 19.8848 1.30248 20.0518 1.19849C20.0217 1.31414 19.9907 1.43355 19.9601 1.54891C19.5699 3.04179 19.297 4.13285 19.342 4.57389C19.3654 4.80402 19.4234 5.0324 19.4994 5.25439C18.9905 4.96325 18.4107 4.81156 17.7745 4.89934C17.4159 4.94874 17.068 5.09341 16.7478 5.32123C16.2795 4.9249 15.7496 4.64887 15.1805 4.60033C13.7847 4.48092 11.9701 4.48064 10.6374 5.03212C10.0336 4.57303 9.13611 4.51027 8.14343 4.86474C6.3653 5.49989 5.17788 6.59617 4.61396 8.12366C3.19012 11.9805 6.19851 17.5235 7.57552 19.7523C7.52572 20.169 7.53788 20.588 7.62628 20.9927C7.86663 22.0913 8.88511 23.9529 13.0083 24.0814C18.0893 24.2397 19.7632 22.139 19.9537 20.8736C20.0567 20.1893 19.7212 19.7881 19.342 19.6939C19.0117 19.6123 17.9808 19.5986 15.5303 19.5859C13.3097 19.5739 9.73771 19.5548 8.65783 19.3613C8.9617 18.213 9.80394 17.1829 10.5271 16.8534C11.0625 16.6082 11.3241 16.8145 11.4739 16.9909C11.6702 17.221 11.8917 17.2622 12.04 17.2637C12.3672 17.2576 12.5668 17.0304 12.692 16.8738C12.8148 16.9244 12.9694 17.0371 13.1308 17.1545C13.5236 17.4404 14.0624 17.8329 14.8469 17.8419C15.2711 17.8384 15.622 17.7306 15.8693 17.4967C16.2741 17.1144 16.3075 16.5391 16.3075 15.9338C16.3075 15.3001 16.1905 14.717 16.0775 14.1536L16.0176 13.8511C15.7852 12.652 15.4561 11.368 15.0401 10.0346C14.952 9.75651 14.8607 9.47931 14.7664 9.20306C14.6333 8.80906 14.4957 8.40172 14.3875 8.01933C14.3173 7.77236 14.1614 7.13257 14.0478 6.66533C13.9898 6.42561 13.9424 6.2324 13.9238 6.16035C13.9079 6.09959 13.8796 6.04244 13.8406 5.99215C13.8016 5.94186 13.7526 5.8994 13.6964 5.8672C13.583 5.80222 13.4472 5.78296 13.3189 5.8137C13.1906 5.84447 13.0803 5.92267 13.0123 6.03118C12.9444 6.13965 12.9242 6.26954 12.9564 6.3922C12.9746 6.46225 13.0202 6.64935 13.0767 6.88152C13.1925 7.35598 13.3502 8.00568 13.4252 8.26923C13.5398 8.6731 13.6807 9.09148 13.8172 9.49596C13.9095 9.76877 14.0013 10.0413 14.0843 10.3078C14.4908 11.6086 14.812 12.8588 15.0371 14.0246L15.0982 14.3332C15.207 14.8771 15.3106 15.3908 15.3106 15.9336C15.3106 16.1954 15.3106 16.6835 15.1684 16.818C15.1049 16.8776 14.9624 16.8874 14.8588 16.8874C14.4042 16.8822 14.0791 16.6457 13.7345 16.3953C13.3888 16.143 12.9986 15.8539 12.4872 15.8955C12.2678 15.9115 12.1196 16.0352 12.0126 16.1553C11.4949 15.7284 10.814 15.6654 10.0981 15.9917C9.23547 16.3851 8.40321 17.3244 7.93498 18.4289C6.5303 15.9824 4.41643 11.5226 5.55436 8.44122C6.02196 7.17528 6.98305 6.29748 8.49224 5.75851C8.68459 5.68964 9.22542 5.52227 9.67603 5.62574C8.93862 6.33759 7.88546 8.07802 8.02461 9.24345C8.0857 9.75744 8.37314 10.1465 8.83375 10.3389C9.66235 10.6855 10.9188 10.4844 11.397 9.64414C11.6687 9.16618 11.7546 8.40608 11.6528 7.3839C11.6343 7.19733 11.5453 6.46572 11.2442 5.82735C12.1566 5.51183 13.4823 5.41361 15.0918 5.55075C15.3911 5.57631 15.7214 5.73643 16.0519 6.00895C16.0216 6.04984 15.9915 6.09147 15.9617 6.1339C15.3464 7.02302 15.0869 8.18292 15.3176 9.01971C15.4139 9.36954 15.6685 9.64325 16.0544 9.81177C16.7459 10.1142 17.7468 10.019 18.3147 9.75165C18.5696 9.63221 18.8422 9.33005 18.6942 8.56995C18.5611 7.88423 18.1017 6.86351 17.4287 6.02786C17.5882 5.92878 17.7526 5.86602 17.9167 5.84365C19.019 5.68878 20.009 6.82223 20.4884 7.83977C20.4905 7.84459 20.4926 7.84946 20.4948 7.85428C20.5525 7.97809 20.603 8.10039 20.6449 8.21837C21.5176 10.6756 24.786 23.6996 19.2788 26.2655ZM16.7709 6.78359C17.4527 7.70581 17.7325 8.61935 17.7429 8.9468C17.3792 9.06389 16.8049 9.09034 16.4697 8.94359C16.3102 8.87386 16.2896 8.80034 16.2835 8.77625C16.1322 8.22852 16.3239 7.38708 16.7399 6.74174L16.7709 6.78359ZM10.5217 9.18795C10.3235 9.53635 9.63655 9.63253 9.23395 9.46458C9.13671 9.42387 9.04312 9.35589 9.01669 9.13537C8.92159 8.33721 9.8161 6.82949 10.374 6.30331C10.521 6.64964 10.6228 7.09247 10.6608 7.47425C10.7389 8.25701 10.6866 8.8977 10.5217 9.18795ZM8.54328 20.3C9.48612 20.459 11.4186 20.5174 15.5254 20.5392C16.9231 20.5464 18.4888 20.5552 18.9756 20.6008C18.9835 20.7368 18.9333 21.0221 18.6869 21.3734C18.2873 21.9405 16.9374 23.246 13.0417 23.1275C10.4536 23.0472 8.91916 22.2415 8.60317 20.7969C8.56785 20.6333 8.54779 20.467 8.54328 20.3Z" fill="#E6B17E"/>
</g>
</g>
</svg>
