<svg width="120" height="29" viewBox="0 0 120 29" fill="none" xmlns="http://www.w3.org/2000/svg">
<mask id="mask0_4_503" style="mask-type:luminance" maskUnits="userSpaceOnUse" x="0" y="0" width="120" height="29">
<path d="M119.371 0H0V28.9505H119.371V0Z" fill="white"/>
</mask>
<g mask="url(#mask0_4_503)">
<mask id="mask1_4_503" style="mask-type:luminance" maskUnits="userSpaceOnUse" x="0" y="0" width="120" height="29">
<path d="M119.371 0H0V28.9505H119.371V0Z" fill="white"/>
</mask>
<g mask="url(#mask1_4_503)">
<mask id="mask2_4_503" style="mask-type:luminance" maskUnits="userSpaceOnUse" x="27" y="2" width="93" height="25">
<path d="M119.371 2.70654H27.2295V26.2439H119.371V2.70654Z" fill="white"/>
</mask>
<g mask="url(#mask2_4_503)">
<mask id="mask3_4_503" style="mask-type:luminance" maskUnits="userSpaceOnUse" x="27" y="2" width="93" height="25">
<path d="M119.371 2.70654H27.2295V26.2439H119.371V2.70654Z" fill="white"/>
</mask>
<g mask="url(#mask3_4_503)">
<mask id="mask4_4_503" style="mask-type:luminance" maskUnits="userSpaceOnUse" x="27" y="2" width="93" height="17">
<path d="M119.371 2.70654H27.2295V18.1191H119.371V2.70654Z" fill="white"/>
</mask>
<g mask="url(#mask4_4_503)">
<mask id="mask5_4_503" style="mask-type:luminance" maskUnits="userSpaceOnUse" x="27" y="2" width="93" height="17">
<path d="M119.371 2.70654H27.2295V18.1191H119.371V2.70654Z" fill="white"/>
</mask>
<g mask="url(#mask5_4_503)">
<path d="M30.3061 17.8636H27.234V9.3697C27.234 7.62409 27.3824 6.5029 27.6792 6.00618C27.976 5.50945 28.6112 4.83535 29.5848 3.98382C30.5554 3.1323 31.2782 2.70654 31.7531 2.70654C32.4061 2.70654 33.215 2.95491 34.1796 3.45164C35.1444 3.94833 35.8642 4.50892 36.339 5.13339L33.868 6.77257C33.0369 5.9778 32.369 5.58043 31.8644 5.58043C31.6715 5.58043 31.4489 5.6968 31.1966 5.92955C30.9443 6.16515 30.7335 6.41351 30.5643 6.67464C30.3922 6.93862 30.3061 7.60279 30.3061 8.66718V9.15683H34.291V11.7327H30.3061V17.8636ZM43.8502 16.7226C42.7903 17.6536 41.9934 18.1191 41.4594 18.1191C40.925 18.1191 40.1263 17.6536 39.064 16.7226C38.0041 15.7944 37.3481 15.0394 37.0961 14.4575C36.9325 14.0886 36.8511 13.159 36.8511 11.6688V9.15683C36.8511 7.66666 36.9325 6.73708 37.0961 6.36809C37.3481 5.78623 38.0041 5.02977 39.064 4.09876C40.1263 3.17062 40.925 2.70654 41.4594 2.70654C41.9934 2.70654 42.7903 3.17062 43.8502 4.09876C44.9126 5.02977 45.5703 5.78623 45.8227 6.36809C45.9859 6.73708 46.0673 7.66666 46.0673 9.15683V11.6688C46.0673 13.159 45.9859 14.0886 45.8227 14.4575C45.5703 15.0394 44.9126 15.7944 43.8502 16.7226ZM40.7111 14.6364C41.0022 14.9287 41.2514 15.0749 41.4594 15.0749C41.667 15.0749 41.9148 14.9287 42.2027 14.6364C42.4935 14.3469 42.6983 14.0701 42.8171 13.8061C42.9359 13.545 42.9951 12.8326 42.9951 11.6688V9.15683C42.9951 7.99308 42.9359 7.27923 42.8171 7.01525C42.6983 6.75412 42.4935 6.47735 42.2027 6.18502C41.9148 5.89549 41.667 5.75074 41.4594 5.75074C41.2514 5.75074 41.0022 5.89549 40.7111 6.18502C40.4235 6.47735 40.2201 6.75412 40.1013 7.01525C39.9825 7.27923 39.9233 7.99308 39.9233 9.15683V11.6688C39.9233 12.8326 39.9825 13.545 40.1013 13.8061C40.2201 14.0701 40.4235 14.3469 40.7111 14.6364ZM54.1795 16.7226C53.12 17.6536 52.323 18.1191 51.7887 18.1191C51.2515 18.1191 50.4528 17.6536 49.3932 16.7226C48.3337 15.7944 47.6763 15.0394 47.4208 14.4575C47.2608 14.0886 47.1804 13.159 47.1804 11.6688V9.15683C47.1804 7.66666 47.2608 6.73708 47.4208 6.36809C47.6763 5.78623 48.3337 5.02977 49.3932 4.09876C50.4528 3.17062 51.2515 2.70654 51.7887 2.70654C52.323 2.70654 53.12 3.17062 54.1795 4.09876C55.239 5.02977 55.8968 5.78623 56.1519 6.36809C56.3151 6.73708 56.3969 7.66666 56.3969 9.15683V11.6688C56.3969 13.159 56.3151 14.0886 56.1519 14.4575C55.8968 15.0394 55.239 15.7944 54.1795 16.7226ZM51.0407 14.6364C51.3315 14.9287 51.5807 15.0749 51.7887 15.0749C51.9934 15.0749 52.2412 14.9287 52.532 14.6364C52.8232 14.3469 53.028 14.0701 53.1467 13.8061C53.2624 13.545 53.3202 12.8326 53.3202 11.6688V9.15683C53.3202 7.99308 53.2624 7.27923 53.1467 7.01525C53.028 6.75412 52.8232 6.47735 52.532 6.18502C52.2412 5.89549 51.9934 5.75074 51.7887 5.75074C51.5807 5.75074 51.3315 5.89549 51.0407 6.18502C50.7527 6.47735 50.5479 6.75412 50.4263 7.01525C50.3104 7.27923 50.2526 7.99308 50.2526 9.15683V11.6688C50.2526 12.8326 50.3104 13.545 50.4263 13.8061C50.5479 14.0701 50.7527 14.3469 51.0407 14.6364ZM64.5091 16.7226C63.4464 17.6536 62.6477 18.1191 62.1137 18.1191C61.5793 18.1191 60.7824 17.6536 59.7229 16.7226C58.6602 15.7944 58.0024 15.0394 57.7504 14.4575C57.5872 14.0886 57.5054 13.159 57.5054 11.6688V9.15683C57.5054 7.66666 57.5872 6.73708 57.7504 6.36809C58.0024 5.78623 58.6602 5.02977 59.7229 4.09876C60.7824 3.17062 61.5793 2.70654 62.1137 2.70654C62.6477 2.70654 63.4464 3.17062 64.5091 4.09876C65.5687 5.02977 66.2246 5.78623 66.477 6.36809C66.6402 6.73708 66.7216 7.66666 66.7216 9.15683V11.6688C66.7216 13.159 66.6402 14.0886 66.477 14.4575C66.2246 15.0394 65.5687 15.7944 64.5091 16.7226ZM61.37 14.6364C61.658 14.9287 61.9057 15.0749 62.1137 15.0749C62.3213 15.0749 62.5709 14.9287 62.8617 14.6364C63.1496 14.3469 63.353 14.0701 63.4714 13.8061C63.5902 13.545 63.6498 12.8326 63.6498 11.6688V9.15683C63.6498 7.99308 63.5902 7.27923 63.4714 7.01525C63.353 6.75412 63.1496 6.47735 62.8617 6.18502C62.5709 5.89549 62.3213 5.75074 62.1137 5.75074C61.9057 5.75074 61.658 5.89549 61.37 6.18502C61.0792 6.47735 60.8744 6.75412 60.7556 7.01525C60.6368 7.27923 60.5776 7.99308 60.5776 9.15683V11.6688C60.5776 12.8326 60.6368 13.545 60.7556 13.8061C60.8744 14.0701 61.0792 14.3469 61.37 14.6364ZM74.8384 16.7226C73.7757 17.6536 72.9773 18.1191 72.443 18.1191C71.9086 18.1191 71.1117 17.6536 70.0521 16.7226C68.9894 15.7944 68.3321 15.0394 68.0797 14.4575C67.9165 14.0886 67.8347 13.159 67.8347 11.6688V9.15683C67.8347 7.66666 67.9165 6.73708 68.0797 6.36809C68.3321 5.78623 68.9894 5.02977 70.0521 4.09876C71.1117 3.17062 71.9086 2.70654 72.443 2.70654C72.9773 2.70654 73.7757 3.17062 74.8384 4.09876C75.8979 5.02977 76.5539 5.78623 76.8063 6.36809C76.9695 6.73708 77.0512 7.66666 77.0512 9.15683V11.6688C77.0512 13.159 76.9695 14.0886 76.8063 14.4575C76.5539 15.0394 75.8979 15.7944 74.8384 16.7226ZM71.6996 14.6364C71.9872 14.9287 72.2354 15.0749 72.443 15.0749C72.6509 15.0749 72.9001 14.9287 73.1909 14.6364C73.4789 14.3469 73.6823 14.0701 73.8011 13.8061C73.9198 13.545 73.9791 12.8326 73.9791 11.6688V9.15683C73.9791 7.99308 73.9198 7.27923 73.8011 7.01525C73.6823 6.75412 73.4789 6.47735 73.1909 6.18502C72.9001 5.89549 72.6509 5.75074 72.443 5.75074C72.2354 5.75074 71.9872 5.89549 71.6996 6.18502C71.4085 6.47735 71.2037 6.75412 71.0849 7.01525C70.9665 7.27923 70.9069 7.99308 70.9069 9.15683V11.6688C70.9069 12.8326 70.9665 13.545 71.0849 13.8061C71.2037 14.0701 71.4085 14.3469 71.6996 14.6364ZM85.1635 16.7226C84.1036 17.6536 83.3066 18.1191 82.7726 18.1191C82.2383 18.1191 81.4396 17.6536 80.3772 16.7226C79.3173 15.7944 78.6613 15.0394 78.409 14.4575C78.2458 14.0886 78.1644 13.159 78.1644 11.6688V9.15683C78.1644 7.66666 78.2458 6.73708 78.409 6.36809C78.6613 5.78623 79.3173 5.02977 80.3772 4.09876C81.4396 3.17062 82.2383 2.70654 82.7726 2.70654C83.3066 2.70654 84.1036 3.17062 85.1635 4.09876C86.2258 5.02977 86.8835 5.78623 87.1359 6.36809C87.2991 6.73708 87.3805 7.66666 87.3805 9.15683V11.6688C87.3805 13.159 87.2991 14.0886 87.1359 14.4575C86.8835 15.0394 86.2258 15.7944 85.1635 16.7226ZM82.0243 14.6364C82.3155 14.9287 82.5647 15.0749 82.7726 15.0749C82.9802 15.0749 83.228 14.9287 83.516 14.6364C83.8068 14.3469 84.0116 14.0701 84.1304 13.8061C84.2491 13.545 84.3083 12.8326 84.3083 11.6688V9.15683C84.3083 7.99308 84.2491 7.27923 84.1304 7.01525C84.0116 6.75412 83.8068 6.47735 83.516 6.18502C83.228 5.89549 82.9802 5.75074 82.7726 5.75074C82.5647 5.75074 82.3155 5.89549 82.0243 6.18502C81.7367 6.47735 81.5333 6.75412 81.4145 7.01525C81.2957 7.27923 81.2365 7.99308 81.2365 9.15683V11.6688C81.2365 12.8326 81.2957 13.545 81.4145 13.8061C81.5333 14.0701 81.7367 14.3469 82.0243 14.6364ZM95.4927 16.7226C94.4332 17.6536 93.6362 18.1191 93.1019 18.1191C92.5675 18.1191 91.7692 17.6536 90.7065 16.7226C89.6469 15.7944 88.991 15.0394 88.7386 14.4575C88.5754 14.0886 88.4936 13.159 88.4936 11.6688V9.15683C88.4936 7.66666 88.5754 6.73708 88.7386 6.36809C88.991 5.78623 89.6469 5.02977 90.7065 4.09876C91.7692 3.17062 92.5675 2.70654 93.1019 2.70654C93.6362 2.70654 94.4332 3.17062 95.4927 4.09876C96.5554 5.02977 97.2128 5.78623 97.4652 6.36809C97.6284 6.73708 97.7101 7.66666 97.7101 9.15683V11.6688C97.7101 13.159 97.6284 14.0886 97.4652 14.4575C97.2128 15.0394 96.5554 15.7944 95.4927 16.7226ZM92.3539 14.6364C92.6447 14.9287 92.8939 15.0749 93.1019 15.0749C93.3095 15.0749 93.5576 14.9287 93.8453 14.6364C94.1364 14.3469 94.3412 14.0701 94.46 13.8061C94.5784 13.545 94.638 12.8326 94.638 11.6688V9.15683C94.638 7.99308 94.5784 7.27923 94.46 7.01525C94.3412 6.75412 94.1364 6.47735 93.8453 6.18502C93.5576 5.89549 93.3095 5.75074 93.1019 5.75074C92.8939 5.75074 92.6447 5.89549 92.3539 6.18502C92.066 6.47735 91.8626 6.75412 91.7438 7.01525C91.625 7.27923 91.5658 7.99308 91.5658 9.15683V11.6688C91.5658 12.8326 91.625 13.545 91.7438 13.8061C91.8626 14.0701 92.066 14.3469 92.3539 14.6364ZM105.822 16.7226C104.76 17.6536 103.961 18.1191 103.427 18.1191C102.893 18.1191 102.096 17.6536 101.036 16.7226C99.9734 15.7944 99.3157 15.0394 99.0636 14.4575C98.9005 14.0886 98.8187 13.159 98.8187 11.6688V9.15683C98.8187 7.66666 98.9005 6.73708 99.0636 6.36809C99.3157 5.78623 99.9734 5.02977 101.036 4.09876C102.096 3.17062 102.893 2.70654 103.427 2.70654C103.961 2.70654 104.76 3.17062 105.822 4.09876C106.882 5.02977 107.538 5.78623 107.79 6.36809C107.953 6.73708 108.035 7.66666 108.035 9.15683V11.6688C108.035 13.159 107.953 14.0886 107.79 14.4575C107.538 15.0394 106.882 15.7944 105.822 16.7226ZM102.683 14.6364C102.971 14.9287 103.219 15.0749 103.427 15.0749C103.635 15.0749 103.884 14.9287 104.175 14.6364C104.463 14.3469 104.666 14.0701 104.785 13.8061C104.903 13.545 104.963 12.8326 104.963 11.6688V9.15683C104.963 7.99308 104.903 7.27923 104.785 7.01525C104.666 6.75412 104.463 6.47735 104.175 6.18502C103.884 5.89549 103.635 5.75074 103.427 5.75074C103.219 5.75074 102.971 5.89549 102.683 6.18502C102.392 6.47735 102.188 6.75412 102.069 7.01525C101.95 7.27923 101.891 7.99308 101.891 9.15683V11.6688C101.891 12.8326 101.95 13.545 102.069 13.8061C102.188 14.0701 102.392 14.3469 102.683 14.6364ZM112.576 3.81352C113.556 3.07554 114.298 2.70654 114.803 2.70654C115.307 2.70654 116.091 3.17062 117.153 4.09876C118.213 5.02977 118.869 5.78623 119.121 6.36809C119.284 6.73708 119.366 7.66666 119.366 9.15683V11.6688C119.366 13.159 119.284 14.0886 119.121 14.4575C118.854 15.011 118.209 15.7164 117.184 16.5736C116.16 17.4336 115.352 17.8636 114.758 17.8636H110.15V8.75235C110.15 7.60279 110.065 6.79383 109.896 6.32552C109.724 5.85717 109.363 5.30369 108.814 4.66504L111.753 2.70654C112.064 2.93362 112.339 3.3026 112.576 3.81352ZM114.758 5.75074C114.328 5.75074 113.793 5.88555 113.155 6.15522C113.2 6.45322 113.222 6.90738 113.222 7.51765V15.2878H114.758C114.966 15.2878 115.215 15.1416 115.506 14.8492C115.794 14.5597 115.997 14.283 116.116 14.019C116.235 13.7579 116.294 13.0454 116.294 11.8817V9.15683C116.294 7.99308 116.235 7.27923 116.116 7.01525C115.997 6.75412 115.794 6.47735 115.506 6.18502C115.215 5.89549 114.966 5.75074 114.758 5.75074Z" fill="#E6B17E"/>
</g>
</g>
<mask id="mask6_4_503" style="mask-type:luminance" maskUnits="userSpaceOnUse" x="27" y="21" width="43" height="6">
<path d="M69.2459 21.7576H27.2295V26.2439H69.2459V21.7576Z" fill="white"/>
</mask>
<g mask="url(#mask6_4_503)">
<mask id="mask7_4_503" style="mask-type:luminance" maskUnits="userSpaceOnUse" x="27" y="21" width="43" height="6">
<path d="M69.2459 21.7576H27.2295V26.2439H69.2459V21.7576Z" fill="white"/>
</mask>
<g mask="url(#mask7_4_503)">
<path d="M27.2299 25.2706V22.142H29.0842V22.4444H27.5934V23.5241H28.7952V23.8248H27.5934V24.9699H29.142V25.2706H27.2299ZM31.7059 23.6448V24.4078C31.7059 24.6792 31.7194 24.9612 31.7462 25.2538L31.43 25.279L31.3766 24.9942C31.1955 25.1332 30.9558 25.2301 30.6574 25.2848C30.5605 25.3027 30.4743 25.3116 30.399 25.3116C30.3237 25.3116 30.2571 25.3083 30.1993 25.3016C30.1415 25.2943 30.0857 25.2809 30.032 25.2614C29.9789 25.2418 29.9295 25.2142 29.884 25.1785C29.8384 25.1433 29.7984 25.0964 29.764 25.0377C29.691 24.9138 29.6545 24.7647 29.6545 24.5905C29.6545 24.4168 29.6679 24.2819 29.6947 24.1859C29.721 24.0898 29.7649 24.0097 29.8261 23.9455C29.947 23.8187 30.1508 23.7553 30.4376 23.7553C30.7243 23.7553 31.03 23.807 31.3547 23.9103V23.6448C31.3547 23.3488 31.2271 23.1737 30.9719 23.1196C30.8895 23.1017 30.7949 23.0928 30.6881 23.0928C30.444 23.0928 30.1908 23.1391 29.9286 23.2318L29.8498 22.9369C29.9222 22.8906 30.1073 22.849 30.4052 22.8121C30.4998 22.8016 30.6127 22.7962 30.7441 22.7962C30.8761 22.7962 31.0055 22.8113 31.1322 22.8415C31.2595 22.8711 31.3652 22.9199 31.4493 22.9881C31.6204 23.1232 31.7059 23.3421 31.7059 23.6448ZM31.3468 24.1666C31.0128 24.0862 30.7047 24.046 30.4227 24.046C30.2487 24.046 30.133 24.0934 30.0758 24.1884C30.0378 24.2554 30.0188 24.3542 30.0188 24.4849C30.0188 24.6161 30.0261 24.711 30.0408 24.7697C30.0559 24.8283 30.0805 24.8766 30.1143 24.9146C30.1815 24.9872 30.2922 25.0235 30.4463 25.0235C30.6869 25.0235 30.9258 24.964 31.1628 24.8451C31.2352 24.8099 31.3007 24.7705 31.3591 24.727C31.3509 24.5796 31.3468 24.3928 31.3468 24.1666ZM33.8056 24.8878L33.9273 25.1542C33.6949 25.2591 33.4803 25.3116 33.2835 25.3116C32.9273 25.3116 32.7249 25.1656 32.6765 24.8736C32.6648 24.8043 32.659 24.7035 32.659 24.5712V23.1212H32.3515V22.87L32.659 22.8373L32.715 22.2811H33.012V22.8373H33.7538V23.1212H33.012V24.5653C33.012 24.7328 33.0248 24.8398 33.0505 24.8861C33.0978 24.9704 33.1918 25.0126 33.3325 25.0126C33.4738 25.0126 33.6315 24.971 33.8056 24.8878ZM34.7551 22.2543C34.6593 22.2543 34.598 22.2415 34.5711 22.2158C34.5285 22.1733 34.5072 22.115 34.5072 22.0407C34.5072 21.9664 34.5116 21.9131 34.5203 21.8807C34.5296 21.8489 34.5437 21.824 34.5624 21.8062C34.5968 21.7738 34.6491 21.7576 34.7191 21.7576C34.7898 21.7576 34.8406 21.7609 34.8715 21.7676C34.9019 21.7743 34.927 21.7872 34.9469 21.8062C34.9813 21.8391 34.9986 21.8927 34.9986 21.967C34.9986 22.0412 34.9948 22.0943 34.9872 22.1261C34.979 22.1585 34.9656 22.1842 34.9469 22.2032C34.9113 22.2372 34.8473 22.2543 34.7551 22.2543ZM34.586 25.2706L34.5816 22.8373H34.932V25.2706H34.586ZM37.1646 23.1154C36.8869 23.1154 36.6038 23.1938 36.3158 23.3507V25.2706H35.9602V22.8373H36.2732L36.3074 23.0886C36.4625 22.9674 36.656 22.8808 36.8872 22.8289C36.981 22.8071 37.0916 22.7962 37.2182 22.7962C37.3451 22.7962 37.4568 22.8102 37.5537 22.8381C37.6507 22.866 37.7279 22.9107 37.785 22.9721C37.8889 23.0827 37.9408 23.2837 37.9408 23.5752V25.2706H37.5816V23.6389C37.5816 23.4423 37.5618 23.3158 37.522 23.2594C37.4818 23.203 37.4342 23.1648 37.3793 23.1447C37.3246 23.1252 37.2531 23.1154 37.1646 23.1154ZM40.5152 23.0048L40.5494 22.8373H40.8578L40.8596 25.2254C40.8596 25.576 40.7877 25.831 40.6439 25.9901C40.4899 26.1593 40.2297 26.2439 39.8635 26.2439C39.578 26.2439 39.3249 26.207 39.1043 26.1333C39.0486 26.116 39.0059 26.0999 38.9763 26.0848L39.0874 25.7958C39.1127 25.8042 39.1501 25.8176 39.2005 25.836C39.2502 25.8544 39.3098 25.8726 39.3799 25.8905C39.5569 25.9351 39.719 25.9574 39.8663 25.9574C40.014 25.9574 40.1279 25.9432 40.2079 25.9147C40.2879 25.8862 40.3496 25.8418 40.3936 25.7815C40.4676 25.681 40.5047 25.4979 40.5047 25.2321V25.0377C40.2325 25.2203 39.9446 25.3116 39.6411 25.3116C39.2862 25.3116 39.0493 25.191 38.9305 24.9498C38.8625 24.8135 38.8226 24.641 38.8114 24.4321C38.8068 24.3366 38.8047 24.2314 38.8047 24.1164C38.8047 24.0013 38.8057 23.8851 38.8082 23.7679C38.8103 23.6506 38.8191 23.542 38.8343 23.442C38.8501 23.3426 38.8748 23.253 38.9087 23.1732C38.9421 23.0939 38.9901 23.026 39.0525 22.9696C39.1825 22.854 39.3827 22.7962 39.6524 22.7962C39.9227 22.7962 40.2103 22.8657 40.5152 23.0048ZM40.5047 24.7613V23.2871C40.2484 23.1642 40.0006 23.1028 39.7609 23.1028C39.5872 23.1028 39.4719 23.1165 39.4159 23.1438C39.3605 23.1712 39.3182 23.2067 39.289 23.2502C39.2597 23.2938 39.2357 23.3538 39.2171 23.4303C39.1843 23.5733 39.1681 23.8089 39.1681 24.1373V24.1825C39.1681 24.4852 39.2076 24.6971 39.2862 24.8183C39.3644 24.9428 39.5075 25.005 39.7155 25.005H39.7479C39.9446 25.005 40.1455 24.9531 40.3506 24.8493C40.4088 24.8208 40.4602 24.7915 40.5047 24.7613ZM44.5909 25.279L44.5401 24.9984C44.2388 25.2072 43.9328 25.3116 43.6223 25.3116C43.279 25.3116 43.0502 25.191 42.9364 24.9498C42.8705 24.8135 42.8335 24.6692 42.8261 24.5167C42.818 24.3648 42.8137 24.2314 42.8137 24.1164C42.8137 24.0013 42.8148 23.8851 42.8172 23.7679C42.8197 23.6506 42.8285 23.542 42.8444 23.442C42.8595 23.3426 42.8842 23.253 42.9181 23.1732C42.9512 23.0939 42.9995 23.026 43.0626 22.9696C43.1923 22.854 43.4062 22.7962 43.7044 22.7962C44.0037 22.7962 44.2733 22.8459 44.5141 22.9453V21.7902L44.8694 21.7576V24.1523C44.8694 24.6225 44.8831 24.9897 44.9099 25.2538L44.5909 25.279ZM44.5123 24.1356L44.5141 23.2259C44.2575 23.1438 44.0097 23.1028 43.7703 23.1028C43.5962 23.1028 43.4813 23.1165 43.426 23.1438C43.3699 23.1712 43.3273 23.2067 43.298 23.2502C43.2688 23.2938 43.2452 23.3538 43.2272 23.4303C43.1937 23.5733 43.1771 23.8089 43.1771 24.1373V24.1825C43.1771 24.4891 43.2124 24.701 43.2822 24.8183C43.3576 24.9428 43.4982 25.005 43.7037 25.005H43.7361C43.9328 25.005 44.1422 24.945 44.3643 24.825C44.4256 24.792 44.4781 24.7594 44.5225 24.727V24.7228C44.5158 24.596 44.5123 24.4003 44.5123 24.1356ZM45.7287 24.0602C45.7287 23.7503 45.7453 23.5342 45.778 23.4119C45.8105 23.289 45.851 23.1919 45.8986 23.1204C45.9465 23.0489 46.011 22.9892 46.0924 22.9412C46.2546 22.8446 46.495 22.7962 46.8133 22.7962C47.2722 22.7962 47.5672 22.9046 47.698 23.1212C47.7769 23.2519 47.8217 23.4367 47.833 23.6757C47.8368 23.7885 47.839 23.9131 47.839 24.0493C47.839 24.1862 47.8347 24.3135 47.8259 24.4313C47.8164 24.5491 47.7981 24.6549 47.7706 24.7487C47.7438 24.8431 47.7061 24.9255 47.6578 24.9959C47.6091 25.0657 47.545 25.1246 47.465 25.1726C47.3085 25.2653 47.0797 25.3116 46.7791 25.3116C46.3282 25.3116 46.0322 25.2053 45.8908 24.9925C45.8038 24.8602 45.7534 24.6748 45.7393 24.4363C45.7322 24.3218 45.7287 24.1965 45.7287 24.0602ZM46.3103 24.9129C46.3617 24.9498 46.4262 24.9774 46.5041 24.9959C46.5817 25.0143 46.6881 25.0235 46.8228 25.0235C46.9571 25.0235 47.0706 25.005 47.1629 24.9682C47.2546 24.9313 47.3236 24.8722 47.3702 24.7906C47.4163 24.7096 47.4456 24.6044 47.4579 24.4748C47.4696 24.3453 47.4756 24.1948 47.4756 24.0234C47.4756 23.8514 47.4703 23.7081 47.4597 23.5936C47.4491 23.4792 47.4227 23.3845 47.38 23.3097C47.294 23.1623 47.1037 23.0886 46.809 23.0886C46.4964 23.0886 46.2934 23.1623 46.1992 23.3097C46.152 23.3845 46.1217 23.4797 46.109 23.5953C46.096 23.7115 46.0896 23.8377 46.0896 23.9739C46.0896 24.1102 46.0914 24.2258 46.0949 24.3207C46.0991 24.4156 46.1083 24.5008 46.1231 24.5762C46.1383 24.6521 46.1605 24.718 46.1897 24.7739C46.2186 24.8297 46.2592 24.8761 46.3103 24.9129ZM49.9221 23.1154C49.644 23.1154 49.3609 23.1938 49.0733 23.3507V25.2706H48.7184V22.8373H49.0303L49.0645 23.0886C49.2196 22.9674 49.4131 22.8808 49.6443 22.8289C49.7384 22.8071 49.8488 22.7962 49.9753 22.7962C50.1022 22.7962 50.2139 22.8102 50.3109 22.8381C50.4078 22.866 50.485 22.9107 50.5421 22.9721C50.6461 23.0827 50.6979 23.2837 50.6979 23.5752V25.2706H50.3391V23.6389C50.3391 23.4423 50.319 23.3158 50.2795 23.2594C50.239 23.203 50.1914 23.1648 50.1364 23.1447C50.0818 23.1252 50.0102 23.1154 49.9221 23.1154ZM53.523 24.8493L53.628 25.1416C53.3326 25.2549 53.0066 25.3116 52.6506 25.3116C52.4437 25.3116 52.2685 25.2913 52.1251 25.2505C51.8949 25.1874 51.7423 25.0578 51.6668 24.8618C51.5967 24.6776 51.5618 24.4048 51.5618 24.0435V23.9396C51.5618 23.5074 51.6559 23.2039 51.8445 23.0291C52.014 22.8739 52.2971 22.7962 52.6932 22.7962C53.0799 22.7962 53.3436 22.8875 53.4845 23.0701C53.5526 23.1589 53.598 23.2664 53.6202 23.3926C53.6425 23.5183 53.6534 23.6383 53.6534 23.7528C53.6534 23.9315 53.6492 24.07 53.6403 24.1683C53.4394 24.1766 53.2593 24.1808 53.1 24.1808C53.1 24.1808 52.9851 24.1808 52.7556 24.1808C52.3965 24.1808 52.1198 24.1657 51.9252 24.1356C51.9252 24.4494 51.9668 24.6683 52.0496 24.7923C52.1508 24.9436 52.3524 25.0193 52.6548 25.0193C52.9572 25.0193 53.2466 24.9626 53.523 24.8493ZM51.9252 23.896H53.2924V23.7C53.2924 23.4862 53.2491 23.3334 53.162 23.2418C53.0651 23.1397 52.8977 23.0886 52.6594 23.0886C52.3743 23.0886 52.1797 23.1478 52.075 23.2661C51.9753 23.3795 51.9252 23.5895 51.9252 23.896ZM55.9773 25.0436L55.9325 25.2706H55.6315V21.7902L55.9861 21.7576V23.0701C56.2814 22.8875 56.5669 22.7962 56.8419 22.7962C57.2236 22.7962 57.4661 22.9087 57.569 23.1338C57.6332 23.2756 57.6695 23.4747 57.6776 23.731C57.6804 23.855 57.6818 23.9913 57.6818 24.1398V24.3031C57.6818 24.4902 57.6695 24.6306 57.6452 24.7244C57.6201 24.8188 57.5881 24.8995 57.5496 24.9665C57.5112 25.0341 57.4584 25.0933 57.391 25.1441C57.2458 25.2558 57.0375 25.3116 56.7664 25.3116C56.4957 25.3116 56.2324 25.2223 55.9773 25.0436ZM55.9861 23.3398V24.7756C56.2885 24.9325 56.5433 25.0109 56.7499 25.0109H56.7753C57.0195 25.0109 57.176 24.9461 57.2458 24.8166C57.2832 24.7513 57.3057 24.6661 57.3138 24.5611C57.3226 24.4561 57.3272 24.3299 57.3272 24.1825V23.8885C57.3272 23.5842 57.2906 23.3795 57.2176 23.2745C57.1464 23.1695 57.0111 23.117 56.8119 23.117H56.7587C56.58 23.117 56.3731 23.1676 56.1383 23.2687C56.077 23.2943 56.0262 23.3181 55.9861 23.3398ZM60.4491 24.8493L60.5541 25.1416C60.2588 25.2549 59.9327 25.3116 59.5764 25.3116C59.3698 25.3116 59.1943 25.2913 59.0501 25.2505C58.8207 25.1874 58.668 25.0578 58.593 24.8618C58.5228 24.6776 58.4876 24.4048 58.4876 24.0435V23.9396C58.4876 23.5074 58.582 23.2039 58.7706 23.0291C58.9402 22.8739 59.2228 22.7962 59.6194 22.7962C60.006 22.7962 60.2697 22.8875 60.4103 23.0701C60.4787 23.1589 60.5242 23.2664 60.546 23.3926C60.5682 23.5183 60.5795 23.6383 60.5795 23.7528C60.5795 23.9315 60.5753 24.07 60.5665 24.1683C60.3656 24.1766 60.1854 24.1808 60.0258 24.1808C60.0258 24.1808 59.9112 24.1808 59.6818 24.1808C59.3219 24.1808 59.0452 24.1657 58.8513 24.1356C58.8513 24.4494 58.8926 24.6683 58.9758 24.7923C59.0766 24.9436 59.2785 25.0193 59.581 25.0193C59.8834 25.0193 60.1728 24.9626 60.4491 24.8493ZM58.8513 23.896H60.2179V23.7C60.2179 23.4862 60.1745 23.3334 60.0882 23.2418C59.9912 23.1397 59.8235 23.0886 59.5852 23.0886C59.3004 23.0886 59.1055 23.1478 59.0011 23.2661C58.901 23.3795 58.8513 23.5895 58.8513 23.896ZM62.6091 24.8878L62.7307 25.1542C62.4984 25.2591 62.2837 25.3116 62.0871 25.3116C61.7307 25.3116 61.5284 25.1656 61.4801 24.8736C61.4681 24.8043 61.4625 24.7035 61.4625 24.5712V23.1212H61.1551V22.87L61.4625 22.8373L61.5185 22.2811H61.8153V22.8373H62.5573V23.1212H61.8153V24.5653C61.8153 24.7328 61.8283 24.8398 61.8541 24.8861C61.9006 24.9704 61.9947 25.0126 62.136 25.0126C62.2774 25.0126 62.4349 24.971 62.6091 24.8878ZM64.4345 24.8878L64.5572 25.1542C64.3246 25.2591 64.1103 25.3116 63.9132 25.3116C63.5565 25.3116 63.3539 25.1656 63.3056 24.8736C63.2943 24.8043 63.2886 24.7035 63.2886 24.5712V23.1212H62.9806V22.87L63.2886 22.8373L63.344 22.2811H63.6418V22.8373H64.3838V23.1212H63.6418V24.5653C63.6418 24.7328 63.6545 24.8398 63.6802 24.8861C63.7271 24.9704 63.8209 25.0126 63.9622 25.0126C64.1036 25.0126 64.2611 24.971 64.4345 24.8878ZM67.0175 24.8493L67.1229 25.1416C66.8278 25.2549 66.5022 25.3116 66.1451 25.3116C65.9385 25.3116 65.7634 25.2913 65.6196 25.2505C65.3901 25.1874 65.2375 25.0578 65.1617 24.8618C65.0919 24.6776 65.0574 24.4048 65.0574 24.0435V23.9396C65.0574 23.5074 65.1515 23.2039 65.3393 23.0291C65.5085 22.8739 65.7916 22.7962 66.1881 22.7962C66.5748 22.7962 66.8384 22.8875 66.9791 23.0701C67.0481 23.1589 67.0936 23.2664 67.1158 23.3926C67.1373 23.5183 67.1482 23.6383 67.1482 23.7528C67.1482 23.9315 67.144 24.07 67.1359 24.1683C66.9343 24.1766 66.7538 24.1808 66.5945 24.1808C66.5945 24.1808 66.4799 24.1808 66.2505 24.1808C65.8913 24.1808 65.6146 24.1657 65.4208 24.1356C65.4208 24.4494 65.462 24.6683 65.5445 24.7923C65.646 24.9436 65.8476 25.0193 66.1497 25.0193C66.4521 25.0193 66.7415 24.9626 67.0175 24.8493ZM65.4208 23.896H66.7873V23.7C66.7873 23.4862 66.7436 23.3334 66.6569 23.2418C66.56 23.1397 66.3922 23.0886 66.1539 23.0886C65.8691 23.0886 65.6745 23.1478 65.5706 23.2661C65.4708 23.3795 65.4208 23.5895 65.4208 23.896ZM68.9596 23.1338C68.7767 23.1338 68.5909 23.2209 68.4016 23.3951V25.2706H68.046V22.8373H68.3586L68.3928 23.1597C68.4602 23.0604 68.5324 22.9828 68.61 22.9269C68.6879 22.8711 68.7513 22.837 68.801 22.8247C68.8722 22.8057 68.9399 22.7962 69.0044 22.7962C69.0685 22.7962 69.1492 22.8085 69.2462 22.8331L69.2137 23.1581C69.1411 23.1419 69.0565 23.1338 68.9596 23.1338Z" fill="#E6B17E"/>
</g>
</g>
</g>
</g>
<mask id="mask8_4_503" style="mask-type:luminance" maskUnits="userSpaceOnUse" x="0" y="0" width="24" height="29">
<path d="M23.4245 0H0V28.9505H23.4245V0Z" fill="white"/>
</mask>
<g mask="url(#mask8_4_503)">
<mask id="mask9_4_503" style="mask-type:luminance" maskUnits="userSpaceOnUse" x="0" y="0" width="24" height="29">
<path d="M23.4245 0H0V28.9505H23.4245V0Z" fill="white"/>
</mask>
<g mask="url(#mask9_4_503)">
<path d="M21.5908 7.91154C21.5415 7.77433 21.4865 7.63901 21.4261 7.50591C21.3322 6.9742 20.8953 5.97353 20.8895 5.9622L20.799 5.7707C20.6012 5.3555 20.3763 4.88537 20.3356 4.4815C20.304 4.16973 20.7257 2.55598 20.9284 1.78019C21.3027 0.348903 21.3422 0.199846 20.8859 0.0420735C20.8181 0.0197215 20.7461 0.0111127 20.6747 0.0167951L20.6719 0.0162139C20.2368 -0.0735686 19.7726 0.215536 18.9895 0.734181C18.8525 0.824834 18.673 0.943672 18.5037 1.04827C18.5627 0.783868 18.5541 0.440428 18.2014 0.170499C17.7538 -0.172068 17.1194 0.177765 16.1595 0.708323C15.8906 0.857086 15.4892 1.07937 15.2212 1.19384C15.0092 0.860285 14.6184 0.498539 13.881 0.641495C13.4638 0.722269 12.9795 1.0721 12.2888 1.59743C12.0892 1.75125 11.886 1.90072 11.6793 2.04576C11.6763 1.92547 11.6617 1.79414 11.6109 1.66513C11.3682 1.05292 10.9716 0.858541 10.6815 0.803336C9.74349 0.623771 8.73351 1.64479 7.92437 2.46561C7.87361 2.51733 7.82074 2.57051 7.76879 2.62281C7.53453 2.25206 7.24071 1.86968 6.80893 1.79733C6.39265 1.72498 4.67624 2.11898 3.0859 3.45556C1.57122 4.72818 -0.190788 7.18486 0.0167397 11.6632C0.074167 12.8972 0.771192 23.8274 7.53633 27.675C9.03156 28.526 10.6951 28.9505 12.5164 28.9505C14.6968 28.9505 17.103 28.3412 19.7161 27.1238C26.734 23.8533 21.6464 8.06872 21.5908 7.91154ZM19.2788 26.2655C14.8047 28.3505 11.0254 28.5493 8.0459 26.8541C1.73104 23.2626 1.06835 12.8013 1.01366 11.6205C0.874499 8.61817 1.63503 6.25738 3.27459 4.60412C4.68079 3.1862 6.27722 2.78784 6.62997 2.74484C6.74939 2.83927 6.93959 3.15249 7.0344 3.30909C7.11766 3.44623 7.18967 3.56507 7.26439 3.66067C7.34141 3.75921 7.45526 3.82547 7.58219 3.84556C7.70911 3.86565 7.83921 3.83802 7.94531 3.76847C8.12884 3.64849 8.34762 3.42679 8.64994 3.11966C9.04313 2.72101 10.0859 1.66222 10.4864 1.73835C10.5441 1.74968 10.6177 1.85079 10.676 1.99723C10.6842 2.02891 10.6824 2.12479 10.6809 2.18784C10.6757 2.42552 10.666 2.86833 11.0783 3.10048C11.5584 3.371 12.0959 2.96189 12.909 2.34387C13.2669 2.0722 13.8652 1.61748 14.0791 1.57622C14.2614 1.54048 14.3158 1.52973 14.4823 1.91908C14.544 2.0629 14.6746 2.16895 14.8332 2.20353C15.2516 2.29535 15.774 2.0228 16.6587 1.53379C16.8757 1.41351 17.1829 1.24411 17.429 1.12585C17.3494 1.34813 17.2783 1.65612 17.4737 1.95278C17.57 2.09777 17.7204 2.19685 17.8984 2.23143C18.3263 2.3154 18.7842 2.02949 19.5562 1.5184C19.7196 1.40913 19.8848 1.30248 20.0518 1.19849C20.0217 1.31414 19.9907 1.43355 19.9601 1.54891C19.5699 3.04179 19.297 4.13285 19.342 4.57389C19.3654 4.80402 19.4234 5.0324 19.4994 5.25439C18.9905 4.96325 18.4107 4.81156 17.7745 4.89934C17.4159 4.94874 17.068 5.09341 16.7478 5.32123C16.2795 4.9249 15.7496 4.64887 15.1805 4.60033C13.7847 4.48092 11.9701 4.48064 10.6374 5.03212C10.0336 4.57303 9.13611 4.51027 8.14343 4.86474C6.3653 5.49989 5.17788 6.59617 4.61396 8.12366C3.19012 11.9805 6.19851 17.5235 7.57552 19.7523C7.52572 20.169 7.53788 20.588 7.62628 20.9927C7.86663 22.0913 8.88511 23.9529 13.0083 24.0814C18.0893 24.2397 19.7632 22.139 19.9537 20.8736C20.0567 20.1893 19.7212 19.7881 19.342 19.6939C19.0117 19.6123 17.9808 19.5986 15.5303 19.5859C13.3097 19.5739 9.73771 19.5548 8.65783 19.3613C8.9617 18.213 9.80394 17.1829 10.5271 16.8534C11.0625 16.6082 11.3241 16.8145 11.4739 16.9909C11.6702 17.221 11.8917 17.2622 12.04 17.2637C12.3672 17.2576 12.5668 17.0304 12.692 16.8738C12.8148 16.9244 12.9694 17.0371 13.1308 17.1545C13.5236 17.4404 14.0624 17.8329 14.8469 17.8419C15.2711 17.8384 15.622 17.7306 15.8693 17.4967C16.2741 17.1144 16.3075 16.5391 16.3075 15.9338C16.3075 15.3001 16.1905 14.717 16.0775 14.1536L16.0176 13.8511C15.7852 12.652 15.4561 11.368 15.0401 10.0346C14.952 9.75651 14.8607 9.47931 14.7664 9.20306C14.6333 8.80906 14.4957 8.40172 14.3875 8.01933C14.3173 7.77236 14.1614 7.13257 14.0478 6.66533C13.9898 6.42561 13.9424 6.2324 13.9238 6.16035C13.9079 6.09959 13.8796 6.04244 13.8406 5.99215C13.8016 5.94186 13.7526 5.8994 13.6964 5.8672C13.583 5.80222 13.4472 5.78296 13.3189 5.8137C13.1906 5.84447 13.0803 5.92267 13.0123 6.03118C12.9444 6.13965 12.9242 6.26954 12.9564 6.3922C12.9746 6.46225 13.0202 6.64935 13.0767 6.88152C13.1925 7.35598 13.3502 8.00568 13.4252 8.26923C13.5398 8.6731 13.6807 9.09148 13.8172 9.49596C13.9095 9.76877 14.0013 10.0413 14.0843 10.3078C14.4908 11.6086 14.812 12.8588 15.0371 14.0246L15.0982 14.3332C15.207 14.8771 15.3106 15.3908 15.3106 15.9336C15.3106 16.1954 15.3106 16.6835 15.1684 16.818C15.1049 16.8776 14.9624 16.8874 14.8588 16.8874C14.4042 16.8822 14.0791 16.6457 13.7345 16.3953C13.3888 16.143 12.9986 15.8539 12.4872 15.8955C12.2678 15.9115 12.1196 16.0352 12.0126 16.1553C11.4949 15.7284 10.814 15.6654 10.0981 15.9917C9.23547 16.3851 8.40321 17.3244 7.93498 18.4289C6.5303 15.9824 4.41643 11.5226 5.55436 8.44122C6.02196 7.17528 6.98305 6.29748 8.49224 5.75851C8.68459 5.68964 9.22542 5.52227 9.67603 5.62574C8.93862 6.33759 7.88546 8.07802 8.02461 9.24345C8.0857 9.75744 8.37314 10.1465 8.83375 10.3389C9.66235 10.6855 10.9188 10.4844 11.397 9.64414C11.6687 9.16618 11.7546 8.40608 11.6528 7.3839C11.6343 7.19733 11.5453 6.46572 11.2442 5.82735C12.1566 5.51183 13.4823 5.41361 15.0918 5.55075C15.3911 5.57631 15.7214 5.73643 16.0519 6.00895C16.0216 6.04984 15.9915 6.09147 15.9617 6.1339C15.3464 7.02302 15.0869 8.18292 15.3176 9.01971C15.4139 9.36954 15.6685 9.64325 16.0544 9.81177C16.7459 10.1142 17.7468 10.019 18.3147 9.75165C18.5696 9.63221 18.8422 9.33005 18.6942 8.56995C18.5611 7.88423 18.1017 6.86351 17.4287 6.02786C17.5882 5.92878 17.7526 5.86602 17.9167 5.84365C19.019 5.68878 20.009 6.82223 20.4884 7.83977C20.4905 7.84459 20.4926 7.84946 20.4948 7.85428C20.5525 7.97809 20.603 8.10039 20.6449 8.21837C21.5176 10.6756 24.786 23.6996 19.2788 26.2655ZM16.7709 6.78359C17.4527 7.70581 17.7325 8.61935 17.7429 8.9468C17.3792 9.06389 16.8049 9.09034 16.4697 8.94359C16.3102 8.87386 16.2896 8.80034 16.2835 8.77625C16.1322 8.22852 16.3239 7.38708 16.7399 6.74174L16.7709 6.78359ZM10.5217 9.18795C10.3235 9.53635 9.63655 9.63253 9.23395 9.46458C9.13671 9.42387 9.04312 9.35589 9.01669 9.13537C8.92159 8.33721 9.8161 6.82949 10.374 6.30331C10.521 6.64964 10.6228 7.09247 10.6608 7.47425C10.7389 8.25701 10.6866 8.8977 10.5217 9.18795ZM8.54328 20.3C9.48612 20.459 11.4186 20.5174 15.5254 20.5392C16.9231 20.5464 18.4888 20.5552 18.9756 20.6008C18.9835 20.7368 18.9333 21.0221 18.6869 21.3734C18.2873 21.9405 16.9374 23.246 13.0417 23.1275C10.4536 23.0472 8.91916 22.2415 8.60317 20.7969C8.56785 20.6333 8.54779 20.467 8.54328 20.3Z" fill="#E6B17E"/>
</g>
</g>
</g>
</g>
</svg>
