<svg width="64" height="64" viewBox="0 0 65 64" fill="none" xmlns="http://www.w3.org/2000/svg">
<path d="M48.0717 49.3744C51.2873 47.1383 53.9725 44.2356 55.9407 40.8679C57.9088 37.5003 59.1127 33.7485 59.4686 29.8735H5.53139C5.8873 33.7485 7.09118 37.5003 9.05935 40.8679C11.0275 44.2356 13.7127 47.1383 16.9283 49.3744H48.0717ZM15.2692 54.1423C10.7394 51.2786 7.01161 47.3303 4.4302 42.6625C1.8488 37.9947 0.497098 32.7579 0.500005 27.4359C0.500005 26.7894 0.759344 26.1694 1.22097 25.7123C1.6826 25.2552 2.3087 24.9983 2.96154 24.9983H62.0385C62.6913 24.9983 63.3174 25.2552 63.779 25.7123C64.2407 26.1694 64.5 26.7894 64.5 27.4359C64.5029 32.7579 63.1512 37.9947 60.5698 42.6625C57.9884 47.3303 54.2606 51.2786 49.7308 54.1423V59.1248C49.7308 60.4178 49.2121 61.6578 48.2888 62.5721C47.3656 63.4864 46.1134 64 44.8077 64H20.1923C18.8866 64 17.6344 63.4864 16.7112 62.5721C15.7879 61.6578 15.2692 60.4178 15.2692 59.1248V54.1423ZM31.0575 20.1231H24.0963L43.6655 0.744172C43.8926 0.511356 44.1642 0.325654 44.4645 0.197901C44.7649 0.070149 45.0879 0.00290458 45.4147 9.20359e-05C45.7415 -0.00272051 46.0657 0.0589551 46.3682 0.18152C46.6707 0.304085 46.9455 0.485085 47.1767 0.713958C47.4078 0.942831 47.5906 1.21499 47.7143 1.51457C47.8381 1.81414 47.9004 2.13512 47.8975 2.45879C47.8947 2.78245 47.8268 3.10231 47.6978 3.39971C47.5688 3.69711 47.3813 3.96608 47.1462 4.19094L31.0575 20.1231ZM45.4674 20.1231H35.6212L56.3671 8.26174C56.9321 7.94359 57.6013 7.85969 58.2286 8.02835C58.856 8.197 59.3904 8.60452 59.7154 9.16196C60.0405 9.71941 60.1296 10.3815 59.9635 11.0038C59.7973 11.6262 59.3894 12.1581 58.8286 12.4837L45.4674 20.1231ZM20.1923 54.2496V59.1248H44.8077V54.2496H20.1923Z" fill="black"/>
</svg>
