<svg width="65" height="64" viewBox="0 0 65 64" fill="none" xmlns="http://www.w3.org/2000/svg">
<g clip-path="url(#clip0_6_110)">
<path d="M32.4998 62.337C49.2544 62.337 62.8367 48.7547 62.8367 32.0001C62.8367 15.2455 49.2544 1.66318 32.4998 1.66318C15.7452 1.66318 2.16284 15.2455 2.16284 32.0001C2.16284 48.7547 15.7452 62.337 32.4998 62.337Z" fill="white"/>
<path d="M32.4999 0.000221252C14.8551 0.000221252 0.5 14.3553 0.5 32.0001C0.5 49.6449 14.8551 64 32.4999 64C50.1447 64 64.5 49.6447 64.5 32.0001C64.5 14.3555 50.1447 0.000221252 32.4999 0.000221252ZM32.4999 60.6741C16.6892 60.6741 3.82591 47.811 3.82591 32.0001C3.82591 16.1892 16.6892 3.32613 32.4999 3.32613C48.3106 3.32613 61.1739 16.1892 61.1739 32.0001C61.1739 47.811 48.3108 60.6741 32.4999 60.6741Z" fill="#414042"/>
<path d="M32.4998 10.4669C20.6261 10.4669 10.9663 20.1266 10.9663 32.0003C10.9663 43.874 20.6261 53.5338 32.4998 53.5338C37.7822 53.5338 42.8631 51.6021 46.8063 48.0942C47.4928 47.4838 47.554 46.4326 46.9435 45.7465C46.3333 45.0605 45.2824 44.9986 44.5959 45.6093C41.2622 48.5747 36.9663 50.2079 32.4996 50.2079C22.46 50.2079 14.292 42.0401 14.292 32.0003C14.292 21.9607 22.46 13.7928 32.4996 13.7928C42.5392 13.7928 50.7071 21.9605 50.7071 32.0003C50.7071 34.6469 50.1524 37.1981 49.0582 39.5827C48.6752 40.4175 49.0415 41.4047 49.8763 41.7876C50.7111 42.171 51.6985 41.8042 52.0812 40.9694C53.3761 38.1464 54.0328 35.1287 54.0328 32.0001C54.0335 20.1266 44.3735 10.4669 32.4998 10.4669Z" fill="#414042"/>
</g>
<defs>
<clipPath id="clip0_6_110">
<rect width="64" height="64" fill="white" transform="translate(0.5)"/>
</clipPath>
</defs>
</svg>
